# xmcd CD database file
#
# Track frame offsets:
#	200
#	16035
#	32435
#	47542
#	67042
#	77850
#	89805
#	104355
#	118482
#	145050
#	164452
#	179580
#	194117
#
# Disc length: 2743 seconds
#
# Revision: 2
# Processed by: cddbd v1.5.1PL0 Copyright (c) Steve Scherf et al.
# Submitted via: CDex 1.51
#
DISCID=bb0ab50d
DTITLE=Chris Cain Band - Cuttin' Loose
DYEAR=1990
DGENRE=Blues
TTITLE0=Pick Up the Tab
TTITLE1=Everything You Do is Just Right
TTITLE2=Just Ain't My Plan
TTITLE3=You're the Kind of Woman That Ain't That Hard to Find
TTITLE4=Real Bad Fall
TTITLE5=Turn It Loose
TTITLE6=My Mood
TTITLE7=Middle Name is Trouble
TTITLE8=Woman Down in Texas
TTITLE9=Tippin' at Taylor's
TTITLE10=Never Knew I Could Be This Blue
TTITLE11=I'm Going Through a Love Detox
TTITLE12=Change Might Do Us Good
EXTD=YEAR: 1990
EXTT0=
EXTT1=
EXTT2=
EXTT3=
EXTT4=
EXTT5=
EXTT6=
EXTT7=
EXTT8=
EXTT9=
EXTT10=
EXTT11=
EXTT12=
PLAYORDER=
